# xmcd
#
# Track frame offsets: 
#        150
#        15574
#        35838
#        52171
#        69033
#        86873
#        104726
#
# Disc length: 1682 seconds
#
# Revision: 0
# Processed by: cddbd v1.5.2PL0 Copyright (c) Steve Scherf et al.
# Submitted via: ExactAudioCopyFreeDBPlugin 1.0
#
DISCID=5e069007
DTITLE=Ana Popovic - Trilogy - Midnight (part 3)
DYEAR=2016
DGENRE=Blues
TTITLE0=New Coat Of Paint
TTITLE1=Waiting On You
TTITLE2=In A Sentimental Mood
TTITLE3=Old Country
TTITLE4=Waiting On You (Double-Time Swing)
TTITLE5=Heaven's Crying
TTITLE6=You Don't Know What Love
EXTD=
EXTT0=
EXTT1=
EXTT2=
EXTT3=
EXTT4=
EXTT5=
EXTT6=
PLAYORDER=
